<?xml version="1.0" encoding="UTF-8" standalone="no"?>
<svg width="128px" height="128px" viewBox="0 0 128 128" version="1.1" xmlns="http://www.w3.org/2000/svg" xmlns:xlink="http://www.w3.org/1999/xlink">
    <!-- Generator: Sketch 42 (36781) - http://www.bohemiancoding.com/sketch -->
    <title>Social Media Autopublisher plugin icon</title>
    <desc>Created with Sketch.</desc>
    <defs>
        <circle id="path-1" cx="64" cy="64" r="64"></circle>
        <mask id="mask-2" maskContentUnits="userSpaceOnUse" maskUnits="objectBoundingBox" x="0" y="0" width="128" height="128" fill="white">
            <use xlink:href="#path-1"></use>
        </mask>
    </defs>
    <g id="Page-1" stroke="none" stroke-width="1" fill="none" fill-rule="evenodd">
        <g id="Social-Media-Autopublisher-plugin-icon">
            <g id="socialmedia-icon">
                <use id="Oval" stroke="#EEEEEE" mask="url(#mask-2)" stroke-width="10" fill="#F27150" fill-rule="evenodd" xlink:href="#path-1"></use>
                <g id="Group-2" stroke-width="1" fill-rule="evenodd" transform="translate(16.000000, 22.000000)" fill="#D96447">
                    <circle id="Oval-2-Copy" cx="72" cy="67" r="10"></circle>
                    <circle id="Oval-2-Copy-2" cx="84" cy="25" r="10"></circle>
                    <circle id="Oval-2-Copy-3" cx="33" cy="10" r="10"></circle>
                    <circle id="Oval-2-Copy-4" cx="10" cy="54" r="10"></circle>
                    <circle id="Oval-2-Copy-5" cx="44" cy="83" r="10"></circle>
                    <circle id="Oval-2" cx="48" cy="44" r="16"></circle>
                </g>
                <circle id="Oval-2-Copy" fill="#FFFFFF" fill-rule="evenodd" cx="88" cy="87" r="10"></circle>
                <circle id="Oval-2-Copy-2" fill="#FFFFFF" fill-rule="evenodd" cx="100" cy="45" r="10"></circle>
                <circle id="Oval-2-Copy-3" fill="#FFFFFF" fill-rule="evenodd" cx="49" cy="30" r="10"></circle>
                <circle id="Oval-2-Copy-4" fill="#FFFFFF" fill-rule="evenodd" cx="26" cy="74" r="10"></circle>
                <circle id="Oval-2-Copy-5" fill="#FFFFFF" fill-rule="evenodd" cx="60" cy="103" r="10"></circle>
                <polygon id="Line" fill="#FFFFFF" fill-rule="nonzero" points="62.6409358 73.3766084 58.3766084 105.359064 60.3590642 105.623392 64.6233916 73.6409358"></polygon>
                <polygon id="Line" fill="#FFFFFF" fill-rule="nonzero" points="70.0904123 73.6142909 91.6142909 91.9095877 92.9095877 90.3857091 71.3857091 72.0904123"></polygon>
                <path d="M90.8867258,82.6450781 C90.720989,82.6205245 90.1501177,82.5714173 89.4871705,82.5714173 C88.0998921,82.5714173 87.1484401,83.4185166 87.1484401,84.9715318 L87.1484401,86.309703 L85.583148,86.309703 L85.583148,88.1266695 L87.1484401,88.1266695 L87.1484401,92.7857152 L89.0267905,92.7857152 L89.0267905,88.1266695 L90.5859442,88.1266695 L90.8253418,86.309703 L89.0267905,86.309703 L89.0267905,85.1495454 C89.0267905,84.6277814 89.1679737,84.2656158 89.9229969,84.2656158 L90.8867258,84.2656158 L90.8867258,82.6450781 Z" id="" fill="#F27150" fill-rule="evenodd"></path>
                <polygon id="Line" fill="#FFFFFF" fill-rule="nonzero" points="73.3972487 61.0769013 101.514401 46.9484545 100.616423 45.1613799 72.4992706 59.2898268"></polygon>
                <polygon id="Line" fill="#FFFFFF" fill-rule="nonzero" points="59.8076923 53.0384615 49.0384615 27.1923077 47.1923077 27.9615385 57.9615385 53.8076923"></polygon>
                <polygon id="Line" fill="#FFFFFF" fill-rule="nonzero" points="57.2183993 65.2818447 24.2818447 73.7816007 24.7816007 75.7181553 57.7181553 67.2183993"></polygon>
                <g id="Group" stroke-width="1" fill-rule="evenodd" transform="translate(48.000000, 48.000000)">
                    <circle id="Oval-2" fill="#FFFFFF" cx="16" cy="16" r="16"></circle>
                    <path d="M11.3336969,12.0320711 C11.1368727,10.2785471 12.0852072,7.68404713 15.2165002,7.68404713 C17.5783898,7.68404713 17.9183588,9.20496088 17.9004657,10.0459367 C17.8825726,11.2626677 17.3099933,12.0678574 15.1628209,13.6603435 C16.2900864,14.6265711 18.1688622,16.1116986 18.5804036,16.8274227 C19.3855932,14.8591814 20.5128587,12.5867573 21.783269,12.533078 C22.8926414,12.4793987 23,13.570878 23,13.7677021 C22.9821069,14.8591814 21.9443069,15.2349366 21.1391173,14.7339297 C20.8170414,14.5371056 20.6917897,14.5192125 20.4233932,14.9844331 C20.0655311,15.5570124 19.528738,16.4158814 19.1171967,17.4178951 L19.4392725,17.9010089 C19.4392725,17.9010089 20.2623552,18.9388089 20.2802484,20.5670813 C20.2981415,22.1953536 19.4571656,25.0226266 16.0932623,25.1299852 C14.3755244,25.1477156 14.2144864,24.5216197 14.2144864,24.0383432 C14.2144864,23.6090714 14.3218451,23.1259576 15.0733554,23.1259576 C15.6817209,23.1259576 15.9680105,23.3943542 16.0037967,23.9132542 C16.0037967,24.2175996 16.0574761,24.4858335 16.4511243,24.4142611 C16.8447726,24.3428513 18.3477932,24.1639203 18.4909381,22.0343157 C18.5625105,20.692333 17.8288932,20.0842928 17.5604967,19.6903192 C16.4869105,21.0145715 15.0912485,21.8913335 13.1230072,21.8555473 C10.8863693,21.8199238 10.0453935,20.1735957 10.0096073,18.9031853 C9.97382105,18.1158888 9.93803484,16.8812647 11.8883831,15.1636895 C12.228352,14.9131861 12.6041072,14.5732171 12.6041072,14.5732171 C12.6041072,14.5732171 11.4768417,13.4277332 11.3336969,12.0320711 Z M15.1093043,17.2031779 C14.2504353,16.4337745 13.4631388,15.4675469 13.1231698,15.1454711 C11.6559354,16.1474848 11.6022561,18.9924882 13.0873836,19.6901566 C14.8409077,20.513402 16.3439284,19.7618916 17.0775456,19.0998468 C16.8089864,18.6702497 16.0755318,18.0618842 15.1093043,17.2031779 Z M16.0218525,10.3143333 C16.0397456,9.61650225 15.8429215,8.45345056 14.6977629,8.43555745 C13.5526043,8.41766435 13.2305284,9.38389191 13.2305284,10.5469436 C13.2305284,11.7278884 14.1072905,12.5509711 14.6261905,13.1414435 C15.6817209,12.0320711 16.0039594,11.0121643 16.0218525,10.3143333 Z" id="Shape" fill="#F27150"></path>
                </g>
                <path d="M104.944208,42.0758846 C104.588181,42.2293446 104.201462,42.3398358 103.802466,42.3828046 C104.213739,42.1372686 104.526797,41.7505494 104.674119,41.2901694 C104.293538,41.5172902 103.86385,41.683027 103.415747,41.7689646 C103.053581,41.3822454 102.537955,41.1428478 101.967084,41.1428478 C100.868311,41.1428478 99.9843809,42.0329158 99.9843809,43.125551 C99.9843809,43.279011 100.002796,43.432471 100.033488,43.5797926 C98.3883969,43.493855 96.9213193,42.7081398 95.9453136,41.5050134 C95.7734384,41.7996566 95.675224,42.1372686 95.675224,42.5055726 C95.675224,43.1930734 96.0251128,43.8007751 96.5591536,44.1568023 C96.2338184,44.1445255 95.9268984,44.0524495 95.6629472,43.9051279 L95.6629472,43.9296815 C95.6629472,44.8934103 96.3443096,45.6914023 97.2527929,45.8755543 C97.0870561,45.9185231 96.9090425,45.9430767 96.7310288,45.9430767 C96.6021224,45.9430767 96.4793544,45.9307999 96.3565864,45.9123847 C96.6082608,46.6980999 97.3387305,47.2689712 98.2103833,47.2873864 C97.5290209,47.8214272 96.6757832,48.1344856 95.7488848,48.1344856 C95.583148,48.1344856 95.429688,48.1283472 95.2700896,48.109932 C96.1478808,48.6746648 97.1914089,49 98.3147361,49 C101.960946,49 103.955926,45.9799071 103.955926,43.3588102 C103.955926,43.2728726 103.955926,43.186935 103.949787,43.1009974 C104.336507,42.818631 104.674119,42.4687422 104.944208,42.0758846 Z" id="" fill="#F27150" fill-rule="evenodd"></path>
                <path d="M51.4642946,30.8571391 C50.948669,30.8571391 50.4760122,31.0597063 50.1261234,31.3850415 L47.9162993,30.2801295 C47.9224377,30.2126071 47.9285761,30.1389463 47.9285761,30.0714239 C47.9285761,30.0039015 47.9224377,29.9302407 47.9162993,29.8627183 L50.1261234,28.7578063 C50.4760122,29.0831415 50.948669,29.2857087 51.4642946,29.2857087 C52.5507914,29.2857087 53.4285827,28.4079174 53.4285827,27.3214206 C53.4285827,26.2349238 52.5507914,25.3571326 51.4642946,25.3571326 C50.3777978,25.3571326 49.5000066,26.2349238 49.5000066,27.3214206 C49.5000066,27.388943 49.506145,27.4626038 49.5122834,27.5301262 L47.3024593,28.6350382 C46.9525705,28.309703 46.4799137,28.1071358 45.9642881,28.1071358 C44.8777912,28.1071358 44,28.9849271 44,30.0714239 C44,31.1579207 44.8777912,32.0357119 45.9642881,32.0357119 C46.4799137,32.0357119 46.9525705,31.8331447 47.3024593,31.5078095 L49.5122834,32.6127216 C49.506145,32.680244 49.5000066,32.7539048 49.5000066,32.8214272 C49.5000066,33.907924 50.3777978,34.7857152 51.4642946,34.7857152 C52.5507914,34.7857152 53.4285827,33.907924 53.4285827,32.8214272 C53.4285827,31.7349303 52.5507914,30.8571391 51.4642946,30.8571391 Z" id="" fill="#F27150" fill-rule="evenodd"></path>
                <path d="M57.1423017,101.407917 L55.1166296,101.407917 L55.1166296,107.491072 L57.1423017,107.491072 L57.1423017,101.407917 Z M57.2712081,99.529567 C57.2650697,98.9341422 56.8353817,98.4799006 56.1417424,98.4799006 C55.4542416,98.4799006 55,98.9341422 55,99.529567 C55,100.112715 55.4358264,100.579233 56.1171888,100.579233 L56.1294656,100.579233 C56.8353817,100.579233 57.2773465,100.112715 57.2712081,99.529567 Z M60.2790242,102.272543 L60.2790242,101.407917 L58.2594905,101.407917 C58.2594905,101.407917 58.2840441,101.978789 58.2594905,107.491072 L60.2790242,107.491072 L60.2790242,104.096537 C60.2790242,103.912385 60.2974394,103.734371 60.3465466,103.599326 C60.4938682,103.237161 60.8253418,102.862718 61.3839362,102.862718 C62.1144058,102.862718 62.409049,103.421313 62.409049,104.23772 L62.409049,107.491072 L64.4285827,107.491072 L64.4285827,104.004461 C64.4285827,102.138387 63.4341618,101.266734 62.102129,101.266734 C61.0262234,101.266734 60.5455044,101.855969 60.2790242,102.272543 L60.2790242,102.272543 Z" id="" fill="#F27150" fill-rule="evenodd"></path>
                <g id="g24870" stroke-width="1" fill-rule="evenodd" transform="translate(20.000000, 69.000000)" fill="#F27150">
                    <path d="M8.44779132,5.41003181 C9.40241532,5.61447234 10.3798303,5.6914055 11.351548,5.75584993 C11.6903141,5.78011521 12.0006097,5.47949529 11.9846191,5.151226 C12.0006097,4.82295848 11.6903141,4.52233857 11.351548,4.54660385 C10.3798303,4.61104649 9.40241532,4.68797965 8.44779132,4.89242018 C8.27889465,4.92668607 7.86139981,4.97096685 7.8614016,5.151226 C7.86140338,5.33148692 8.27889465,5.37576592 8.44779132,5.41003181 Z" id="path24860" fill-rule="nonzero"></path>
                    <path d="M0.574504291,0.0111554231 C0.3963031,0.0151665563 0.221197048,0.10740013 0.118247485,0.253228105 C0.00843457081,0.408777897 -0.0157828711,0.620607245 0.0557771156,0.797054983 C0.0557771156,0.797054983 0.818861425,2.75768646 1.6069387,4.76950116 C1.98961095,5.74639209 2.37667539,6.73136437 2.68678366,7.51429302 C2.59009702,7.7572792 2.50108192,7.98067163 2.43188224,8.15182545 C2.37107055,8.29277378 2.35079606,8.35316835 2.29488722,8.47041809 C2.15508906,8.74412755 1.86599993,8.97083609 1.59578328,8.98680887 C1.1345533,9.02344507 0.638647974,9.05485695 0.638647974,9.05485695 C0.48851704,9.06311732 0.343026405,9.13374454 0.243188224,9.24617157 C0.143350221,9.35860039 0.0902973494,9.51165636 0.099841037,9.66171197 C0.109384546,9.81176759 0.181226185,9.95662566 0.294503171,10.0554984 C0.407780156,10.1543712 0.561190606,10.2057682 0.711158225,10.1949412 C1.17428963,10.1918177 1.30017867,10.2075156 1.88191988,10.1135066 C2.75255354,9.88448488 3.19724369,9.30669643 3.49108967,8.57963593 C3.59432517,8.3242999 3.72988801,7.98405663 3.88710719,7.58736104 C4.20154555,6.79396986 4.60191761,5.77540851 4.99595625,4.76950116 C5.78403353,2.75768646 6.54711783,0.797054983 6.54711783,0.797054983 C6.61867782,0.620607245 6.59446038,0.408777897 6.48464747,0.253228105 C6.37483455,0.0976783128 6.18291612,0.00335126759 5.99269331,0.0117131943 C5.88149391,0.0166537081 5.77202154,0.0549921308 5.68201477,0.12047857 C5.592008,0.185965009 5.52181129,0.278348333 5.48289047,0.382631013 C5.48289047,0.382631013 4.71978242,2.34251552 3.93228665,4.35284611 C3.71849877,4.89860707 3.5040694,5.44487047 3.30144748,5.95978481 C3.09792454,5.44253265 2.88678951,4.90471649 2.6706083,4.35284611 C1.88311253,2.34251552 1.12000448,0.382631013 1.12000448,0.382631013 C1.08108366,0.278348333 1.01088695,0.185965009 0.920880179,0.12047857 C0.830873406,0.0549921308 0.721401045,0.0166537081 0.610201645,0.0117131943 C0.598312641,0.011190228 0.586384371,0.0108885854 0.574504291,0.0111563156 L0.574504291,0.0111554231 Z" id="path24805" fill-rule="nonzero"></path>
                    <path d="M7.34644228,7.26925121 C8.05782807,7.93785605 8.8546537,8.50910688 9.65306072,9.06672275 C9.93047735,9.26266196 10.3515151,9.16579719 10.5075697,8.87655046 C10.6909952,8.6038423 10.5808474,8.18608313 10.2783374,8.03168279 C9.41328516,7.58438638 8.53689906,7.14483754 7.61408854,6.82620796 C7.4518048,6.76820458 7.07155837,6.5902281 6.9783508,6.74451974 C6.88514411,6.89881263 7.21959351,7.15259029 7.34644228,7.26925121 L7.34644228,7.26925121 Z" id="path24858" fill-rule="nonzero"></path>
                    <path d="M7.34644228,3.03320185 C8.05782807,2.36459773 8.8546537,1.79334707 9.65306072,1.2357312 C9.93047735,1.03979199 10.3515151,1.13665676 10.5075697,1.4259035 C10.6909952,1.69861165 10.5808474,2.11637064 10.2783374,2.27077098 C9.41328516,2.71806739 8.53689906,3.15761605 7.61408854,3.47624528 C7.4518048,3.53424991 7.07155837,3.71222621 6.9783508,3.55793332 C6.88514411,3.40364043 7.21959351,3.14986437 7.34644228,3.03320185 L7.34644228,3.03320185 Z" id="path24862" fill-rule="nonzero"></path>
                </g>
            </g>
        </g>
    </g>
</svg>